<?xml version="1.0" encoding="utf-8"?>
<!-- Generator: Adobe Illustrator 16.0.0, SVG Export Plug-In . SVG Version: 6.00 Build 0)  -->
<!DOCTYPE svg PUBLIC "-//W3C//DTD SVG 1.1//EN" "http://www.w3.org/Graphics/SVG/1.1/DTD/svg11.dtd">
<svg version="1.1" id="Calque_1" xmlns="http://www.w3.org/2000/svg" xmlns:xlink="http://www.w3.org/1999/xlink" x="0px" y="0px"
	 width="117px" height="150px" viewBox="-142 1.75 117 150" enable-background="new -142 1.75 117 150" xml:space="preserve">
<g>
	<rect x="2" y="1.75" width="30" height="57"/>
	<rect x="2" y="121.75" width="63" height="30"/>
	<rect x="2" y="1.75" width="63" height="30"/>
	<path d="M64,1.75v30c24.301,0,44,20.146,44,45c0,24.854-19.699,45-44,45v30c40.502,0,73.334-33.579,73.334-75S104.502,1.75,64,1.75
		z"/>
</g>
<rect x="-142" y="1.75" width="30" height="150.042"/>
<polygon points="-25,129.984 -25,151.75 -46.573,151.75 -137.773,59.559 -116.379,38.066 "/>
<rect x="-55" y="1.75" width="30" height="57"/>
<rect x="-142" y="1.75" width="117" height="30"/>
</svg>
